<?xml version="1.0" encoding="UTF-8"?>
<svg width="376.82" height="82.555" version="1.1" viewBox="0 0 354.21 77.395" xml:space="preserve" xmlns="http://www.w3.org/2000/svg" xmlns:xlink="http://www.w3.org/1999/xlink"><defs><clipPath id="clipPath38"><path d="M 0,141.73 H 311 V 0 H 0 Z"/></clipPath><linearGradient id="linearGradient945" x2="1" gradientTransform="matrix(61.305 0 0 -61.305 13.876 76.436)" gradientUnits="userSpaceOnUse" xlink:href="#linearGradient24-3"/><linearGradient id="linearGradient24-3" x2="1" gradientTransform="matrix(61.305 0 0 -61.305 13.876 76.436)" gradientUnits="userSpaceOnUse"><stop stop-color="#ec1c28" offset="0"/><stop stop-color="#ec1c28" offset=".33197"/><stop stop-color="#fbc81f" offset="1"/></linearGradient><linearGradient id="linearGradient943" x2="1" gradientTransform="matrix(61.308 0 0 -61.305 12.565 76.436)" gradientUnits="userSpaceOnUse" xlink:href="#linearGradient24-3"/></defs><g transform="matrix(1.25 0 0 -1.25 -16.661 134.24)"><g clip-path="url(#clipPath38)"><g transform="translate(94.512 88.187)"><path d="m0 0-0.378-2.235-0.407-0.116c-1.131 0.87-2.438 1.335-3.657 1.335-2.265 0-3.513-1.567-3.513-3.019 0-3.716 8.506-3.339 8.506-8.709 0-2.904-2.497-5.342-6.242-5.342-1.596 0-3.454 0.436-4.992 1.307l0.29 2.38 0.319 0.145c1.423-1.394 3.222-1.911 4.615-1.945 2.725-0.067 4.521 1.406 3.716 3.135-1.653 3.553-8.476 3.368-8.476 8.768 0 2.874 2.467 5.167 6.067 5.167 1.104 0 2.584-0.232 4.152-0.871" fill="#52566d"/></g><g transform="translate(99.416 77.301)"><path d="m0 0c0-3.745 1.307-5.574 3.687-5.574 2.438 0 3.745 1.626 3.745 4.877 0 3.687-1.307 5.603-3.688 5.603-2.437 0-3.744-1.712-3.744-4.906m9.58-0.174c0-4.471-2.178-7.054-6.039-7.054-3.628 0-5.718 2.438-5.718 6.706 0 4.47 2.205 7.054 6.067 7.054 3.599 0 5.69-2.439 5.69-6.706" fill="#52566d"/></g><g transform="translate(115.18 76.14)"><path d="m0 0 0.145-5.835h-2.293l0.174 5.661-0.058 6.067h-2.003l-0.116 0.175 0.145 1.364h1.974l-0.029 1.916c-0.029 3.135 1.655 4.848 4.586 4.848 0.726 0 1.511-0.087 2.294-0.262l-0.174-1.799-0.174-0.145c-0.813 0.406-1.452 0.522-2.149 0.522-1.393 0-2.177-0.958-2.206-2.845l-0.028-2.235h7.199l0.087-0.174-0.145-1.365h-7.17z" fill="#52566d"/></g><g transform="translate(127.89 72.656)"><path d="m0 0 0.262-0.174-0.233-1.509c-1.074-0.494-1.916-0.756-2.903-0.842-2.206 0.435-3.106 1.538-3.106 3.832l0.087 2.061-0.029 6.009h-1.829l-0.116 0.174 0.145 1.364h1.771v2.149l2.003 0.87 0.232-0.202-0.058-2.817h3.948l0.117-0.173-0.146-1.365h-3.919l-0.145-7.867c-0.029-1.568 0.552-2.091 1.829-2.091 0.61 0 1.248 0.146 2.09 0.581" fill="#52566d"/></g><g transform="translate(134.33 72.801)"><path d="m0 0h0.145l2.816 9.057 0.464 1.742h2.265l0.319-1.625 2.439-9.174h0.145l2.844 9.057 0.407 1.742h2.032l-4.383-13.296h-2.207l-2.757 10.306h-0.203l-3.223-10.306h-2.264l-3.716 13.238 2.118 0.145 0.32-1.712z" fill="#52566d"/></g><g transform="translate(152.65 75.443)"><path d="m0 0c-0.726-0.203-1.103-0.551-1.103-1.393 0-1.278 0.784-2.032 1.974-2.032 1.132 0 2.207 0.754 3.252 2.061l0.087 2.38zm6.387 4.906c0-1.015-0.349-6.154-0.349-7.17 0-0.842 0.233-1.132 0.9-1.132 0.232 0 0.523 0.028 0.987 0.174l0.233-0.203-0.233-1.307c-0.493-0.29-1.074-0.522-1.654-0.58-1.191 0.116-1.945 0.871-2.003 2.148h-0.204c-0.986-1.016-2.003-1.771-3.106-2.178-2.613 0-4.122 1.394-4.122 3.629 0 1.772 0.987 2.7 2.7 3.106l4.703 1.104 0.029 1.887c0 1.538-0.842 2.351-2.294 2.351-1.307 0-2.583-0.609-4.093-1.916l-0.233 0.117-0.29 1.654c1.597 1.19 3.309 1.8 4.964 1.8 2.497 0 4.065-1.307 4.065-3.484" fill="#52566d"/></g><g transform="translate(171.11 83.571)"><path d="m0 0v-2.235l-0.262-0.087c-0.405 0.116-0.811 0.145-1.044 0.145-1.249 0-2.322-0.929-3.368-3.222l-0.028-2.033 0.145-5.835h-2.294l0.175 5.632-0.146 7.519 2.206 0.203-0.029-2.729h0.175c1.189 2.091 2.583 2.701 3.716 2.701 0.26 0 0.551-0.03 0.754-0.059" fill="#52566d"/></g><g transform="translate(174.94 78.607)"><path d="m0 0 6.386 0.174 0.058 0.349c0 2.09-1.132 3.047-2.728 3.047-1.975 0-3.31-1.277-3.716-3.57m-0.145-1.626c0-3.135 1.306-5.051 3.976-5.051 1.249 0 2.672 0.465 3.891 1.306l0.261-0.145-0.232-1.945c-1.248-0.638-2.671-1.074-4.035-1.074-3.804 0-6.038 2.613-6.038 6.793 0 4.297 2.437 6.938 6.241 6.938 2.903 0 4.586-1.858 4.586-4.993 0-0.319-0.029-0.987-0.057-1.335l-0.494-0.378-8.099-0.029z" fill="#52566d"/></g><g transform="translate(208.55 73.556)"><path d="m0 0c0-1.568 0.261-1.974 1.276-1.974 0.582 0 1.307 0.087 1.307 0.087l0.059-0.116-0.262-1.336s-2.293 0.088-3.57 0.088c-1.017 0-3.34-0.058-3.34-0.058l0.262 1.306c1.829 0.029 2.206 0.551 2.206 3.106v4.383s-3.077 0.03-4.412 0.03c-0.929 0-4.819-0.319-4.819-0.319l-0.116-5.197c0-1.568 0.261-1.974 1.277-1.974 0.581 0 1.307 0.087 1.307 0.087l0.057-0.116-0.261-1.336c0 0.03-1.451 0.088-2.468 0.088-1.683 0-4.354-0.204-4.412-0.349l0.174 1.336c1.801 0.348 2.265 0.871 2.265 2.496l0.028 12.193c0 1.248-0.203 1.568-1.074 1.568-0.347 0-0.987-0.059-0.987-0.059l-0.057 0.117 0.203 1.277s2.119-0.087 3.222-0.087c1.248 0 3.106 0.261 3.106 0.261l-0.116-1.306c-1.683-0.262-1.829-0.581-1.916-2.613l-0.174-4.703 4.877-0.029c1.452 0 2.584 0.087 4.296 0.29l0.029 5.284c0 1.248-0.203 1.568-1.074 1.568-0.348 0-0.986-0.059-0.986-0.059l-0.059 0.117 0.204 1.277c0-0.029 1.915-0.087 2.844-0.087 1.394 0 3.484 0.261 3.484 0.261l-0.116-1.306c-1.452-0.203-1.8-0.552-1.858-1.655-0.203-4.238-0.406-10.131-0.406-12.541" fill="#52566d"/></g><g transform="translate(221.72 79.13)"><path d="m0 0c0.581 0.058 0.726 0.203 0.726 0.784 0 1.538-0.871 2.38-2.409 2.38-1.801 0-3.223-1.306-3.572-3.425zm-5.371-1.335v-0.465c0-3.251 1.713-5.399 4.297-5.399 1.8 0 3.571 0.9 3.571 0.9l0.174-0.059 0.319-0.841s-2.7-1.975-4.441-1.975c-3.658 0-6.097 2.584-6.097 6.416 0 3.977 2.961 7.403 6.416 7.403 2.845 0 4.326-1.452 4.326-4.209 0-0.726-0.175-1.423-0.175-1.423l-0.377-0.348z" fill="#52566d"/></g><g transform="translate(229.59 73.76)"><path d="m0 0v6.387c0 1.277-0.319 1.77-1.104 1.77-0.319 0-0.609-0.087-0.609-0.087l-0.145 0.203 0.087 0.901c1.771 0.319 3.919 0.87 3.919 0.87l0.203-0.174s-0.29-1.625-0.261-2.99l0.116-0.087c1.191 1.829 2.932 3.106 4.093 3.106 0.639 0 0.9-0.116 0.9-0.116l0.087-0.116s-0.406-2.381-0.464-4.152l-1.132-0.087c0 1.597-0.145 1.974-0.785 1.974-0.841 0-1.886-0.754-2.699-1.974 0 0-0.232-5.283-0.232-5.922 0-1.306 0.29-1.683 1.393-1.683 0.406 0 1.278 0.058 1.278 0.058l0.028-0.117-0.26-1.277s-1.83 0.058-2.962 0.058c-1.713 0-3.048-0.116-3.048-0.116l0.145 1.161c1.161 0.116 1.452 0.581 1.452 2.41" fill="#52566d"/></g><g transform="translate(240.27 89.261)"><path d="m0 0c0 0.958 0.755 1.713 1.713 1.713 0.812 0 1.422-0.609 1.422-1.481 0-0.958-0.754-1.712-1.712-1.712-0.842 0-1.423 0.61-1.423 1.48m-1.045-18.115c1.161 0.32 1.626 0.872 1.626 1.887v7.374c0 1.074-0.349 1.568-1.075 1.568-0.319 0-0.726-0.116-0.726-0.116l0.117 1.074c1.945 0.29 4.181 0.842 4.181 0.842l0.144-0.349c-0.348-0.813-0.667-5.719-0.667-10.277 0-1.131 0.29-1.625 1.015-1.625 0.349 0 1.016 0.058 1.016 0.058l0.059-0.116-0.232-1.249s-1.51 0.088-2.584 0.088c-1.219 0-2.99-0.349-2.99-0.349z" fill="#52566d"/></g><g transform="translate(248.69 80.611)"><path d="m0 0c0 1.045-0.377 1.393-1.654 1.451l-0.116 0.175 0.144 0.87c1.888 0.929 3.601 2.642 3.601 2.642l0.58-0.232s-0.116-0.755-0.233-2.178l4.269 0.088 0.086-0.088-0.261-1.538-4.209 0.087c-0.117-1.829-0.204-4.267-0.204-7.258 0-1.974 0.61-2.699 2.265-2.699 0.958 0 1.974 0.522 1.974 0.522l0.29-0.755s-2.235-1.741-2.931-1.741c-2.643 0-3.601 0.957-3.601 3.512z" fill="#52566d"/></g><g transform="translate(264.33 76.401)"><path d="m0 0-3.92-1.19c-0.551-0.174-0.841-0.61-0.841-1.219 0-1.104 0.841-1.946 2.002-1.946 0.726 0 1.83 0.581 2.643 1.394zm0.116 2.38c0 1.946-0.929 3.078-2.555 3.078-1.887 0-3.483-1.452-3.483-1.452l-0.146 0.087-0.348 1.249s3.484 2.032 4.732 2.032c2.526 0 4.035-1.394 4.035-3.745 0-1.045-0.522-4.964-0.522-6.677 0-0.842 0.435-1.335 1.19-1.335 0.929 0 1.742 0.725 1.742 0.725l0.406-0.464s-1.073-1.829-2.525-2.323c-1.568 0-2.439 0.784-2.584 2.352l-0.117 0.029c-1.393-1.394-2.612-2.265-3.192-2.265-2.149 0-3.716 1.51-3.716 3.6 0 1.133 0.61 2.062 1.539 2.323l5.486 1.509z" fill="#52566d"/></g><g transform="translate(281.52 67.576)"><path d="m0 0c0 1.132-1.017 1.539-5.662 2.148 0 0-1.799-1.335-1.799-2.642 0-1.48 1.19-2.38 3.193-2.38 2.265 0 4.268 1.364 4.268 2.874m-1.336 10.945c0 2.235-1.364 3.773-3.338 3.773-1.771 0-2.874-1.248-2.874-3.193 0-2.235 1.335-3.745 3.338-3.745 1.771 0 2.874 1.191 2.874 3.165m-5.255-4.21c-0.783-0.435-1.218-0.9-1.218-1.277 0-0.9 1.103-1.336 3.483-1.423 4.5-0.232 6.184-1.074 6.184-3.106 0-2.671-3.513-5.225-7.2-5.225-2.757 0-4.383 1.422-4.383 3.861 0.957 1.277 2.874 2.612 2.874 2.612v0.175c-1.8 0.232-3.165 1.451-3.165 2.844 0.9 0.929 2.439 1.858 2.439 1.858v0.116c-1.364 0.726-2.148 2.149-2.148 3.861 0 2.758 2.526 5.168 5.399 5.168 1.104 0 2.09-0.32 2.845-0.32 1.481 0.175 4.006 0.872 4.006 0.872l0.087-0.116-0.319-1.626s-1.277-0.175-2.496-0.262l-0.117-0.145c0.755-0.842 1.161-1.858 1.161-2.932 0-2.903-2.525-5.167-5.747-5.167-0.552 0-1.075 0.087-1.685 0.232" fill="#52566d"/></g><g transform="translate(293.5 79.13)"><path d="m0 0c0.581 0.058 0.726 0.203 0.726 0.784 0 1.538-0.871 2.38-2.409 2.38-1.801 0-3.223-1.306-3.572-3.425zm-5.371-1.335v-0.465c0-3.251 1.713-5.399 4.297-5.399 1.8 0 3.571 0.9 3.571 0.9l0.174-0.059 0.319-0.841s-2.7-1.975-4.441-1.975c-3.658 0-6.097 2.584-6.097 6.416 0 3.977 2.961 7.403 6.416 7.403 2.845 0 4.326-1.452 4.326-4.209 0-0.726-0.175-1.423-0.175-1.423l-0.377-0.348z" fill="#52566d"/></g></g><g transform="matrix(.99846 0 0 .99846 .84844 .093745)"><path d="m30.574 68.987 1.337-1.343 4.826 1.607-1.61-4.823 1.34-1.34 2.95 8.844z" fill="url(#linearGradient945)"/><path d="m27.188 67.914 5.746-10.675 1.252 1.252-5.747 10.674z" fill="url(#linearGradient945)"/><path d="m24.636 57.152 1.608 4.823-1.34 1.34-2.949-8.846 8.842 2.949-1.338 1.343z" fill="url(#linearGradient945)"/><path d="m44.012 65.874 2.274-5.144h1.894l-4.167 8.935-4.17-8.038 1.895-0.154z" fill="url(#linearGradient945)"/><path d="m38.214 58.771 12-3.485v1.77l-12 3.484z" fill="url(#linearGradient945)"/><path d="m44.012 49.269-2.273 4.461h-1.895l4.169-8.252 4.167 8.379-1.896-0.018z" fill="url(#linearGradient945)"/><path d="m57.288 69.377-8.843 2.95 2.945-8.844 1.342 1.338-1.607 4.825 4.823-1.609z" fill="url(#linearGradient945)"/><path d="m61.884 67.095-10.674-5.748 1.251-1.25 10.675 5.746z" fill="url(#linearGradient945)"/><path d="m61.616 62.367 1.609-4.822-4.822 1.607-1.34-1.34 8.843-2.948-2.948 8.842z" fill="url(#linearGradient945)"/><path d="m58.214 81.089-8.219-4.168 8.396-4.17 0.033 1.896-4.653 2.274 4.443 2.273z" fill="url(#linearGradient945)"/><path d="m61.606 70.73 3.486 12h-1.771l-3.484-12z" fill="url(#linearGradient945)"/><path d="m67.214 72.752 7.967 4.169-8.522 4.168-0.095-1.896 4.873-2.272-4.223-2.274z" fill="url(#linearGradient945)"/><path d="m56.894 84.299-1.339 1.342-4.824-1.608 1.608 4.823-1.34 1.341-2.948-8.844z" fill="url(#linearGradient945)"/><path d="m60.28 85.371-5.746 10.675-1.253-1.253 5.748-10.673z" fill="url(#linearGradient945)"/><path d="m62.832 96.134-1.608-4.823 1.341-1.339 2.947 8.843-8.842-2.949 1.339-1.341z" fill="url(#linearGradient945)"/><path d="m45.73 91.364-2.274-4.365-2.274 4.731h-1.894l4.168-8.521 4.17 8.245z" fill="url(#linearGradient945)"/><path d="m50.214 94.515-12 3.485v-1.77l12-3.485z" fill="url(#linearGradient945)"/><path d="m43.456 103.6 2.274-4.873h1.895l-4.169 8.664-4.169-8.175 1.896-0.083z" fill="url(#linearGradient945)"/><path d="m36.076 89.803-1.341-1.34 1.608-4.823-4.823 1.608-1.34-1.34 8.844-2.949z" fill="url(#linearGradient945)"/><path d="m25.582 86.192 10.674 5.746-1.251 1.251-10.675-5.746z" fill="url(#linearGradient945)"/><path d="m25.85 90.918-1.608 4.823 4.824-1.608 1.339 1.341-8.844 2.948 2.949-8.844z" fill="url(#linearGradient945)"/><path d="m29.214 72.196 8.338 4.169-8.338 4.169v-1.896l4.547-2.273-4.547-2.274z" fill="url(#linearGradient945)"/><path d="m24.146 70.73 3.485 11h-1.769l-3.485-11z" fill="url(#linearGradient945)"/><path d="m12.565 76.365 8.3384 4.169v-1.896l-4.5472-2.273 4.5472-2.274v-1.895z" fill="url(#linearGradient943)"/></g></g></svg>
