<svg xmlns="http://www.w3.org/2000/svg" xmlns:xlink="http://www.w3.org/1999/xlink" version="1.1" viewBox="0 0 2801 1679" style="background: #ffffff"><defs><style>@import url(https://fonts.googleapis.com/css?family=Open+Sans:400,700);</style></defs><defs joint-selector="defs"></defs><g joint-selector="layers"  transform="matrix(1,0,0,1,0,0)"><g ></g><g ><!--z-index:-6--><!--z-index:-5--><!--z-index:-4--><!--z-index:-3--><!--z-index:-2--><!--z-index:-1--><!--z-index:0--><!--z-index:1--><!--z-index:2--><!--z-index:3--><!--z-index:4--><!--z-index:5--><!--z-index:6--><!--z-index:7--><!--z-index:8--><!--z-index:9--><!--z-index:10--><g   id="j_82"  transform="translate(199,165)" style=""><g  id="v-758" style="opacity: 1;"><rect  id="v-759" width="1541" height="1279" rx="10" ry="10" fill="#ffffff" stroke="#888888" stroke-width="1" pointer-events="none" style="stroke: rgb(136, 136, 136);"></rect><text  id="v-760" font-size="24px" xml:space="preserve" y="1240" font-weight="normal" text-anchor="start" pointer-events="visible" font-family="Open Sans" fill="#000000" transform="matrix(1,0,0,1,15,0)" style="fill: rgb(0, 0, 0);"><tspan dy="0" >archive-production-rke2</tspan></text><text  id="v-761" font-size="17px" xml:space="preserve" y="1264" font-weight="normal" text-anchor="start" pointer-events="visible" font-family="Open Sans" fill="#000000" transform="matrix(1,0,0,1,15,0)" style="fill: rgb(0, 0, 0);"><tspan dy="0" >[Deployment Node]</tspan></text><text  id="v-762" font-size="40px" xml:space="preserve" display="none" y="1264" font-weight="normal" fill="#000000" text-anchor="end" pointer-events="visible" font-family="Open Sans" transform="matrix(1,0,0,1,1526,0)"><tspan dy="0" style="fill-opacity: 0; stroke-opacity: 0;" >-</tspan></text><image  id="v-763" pointer-events="visible"></image></g></g><!--z-index:11--><g   id="j_83"  transform="translate(219,185)" style=""><g  id="v-764" style="opacity: 1;"><rect  id="v-765" width="530" height="1168" rx="10" ry="10" fill="#ffffff" stroke="#3d6fdd" stroke-width="1" pointer-events="none" style="stroke: rgb(61, 111, 221);"></rect><text  id="v-766" font-size="24px" xml:space="preserve" y="1129" font-weight="normal" text-anchor="start" pointer-events="visible" font-family="Open Sans" fill="#3d6fdd" transform="matrix(1,0,0,1,73,0)" style="fill: rgb(61, 111, 221);"><tspan dy="0" >swh</tspan></text><text  id="v-767" font-size="17px" xml:space="preserve" y="1153" font-weight="normal" text-anchor="start" pointer-events="visible" font-family="Open Sans" fill="#3d6fdd" transform="matrix(1,0,0,1,73,0)" style="fill: rgb(61, 111, 221);"><tspan dy="0" >[Deployment Node]</tspan></text><text  id="v-768" font-size="40px" xml:space="preserve" display="none" y="1153" font-weight="normal" fill="#3d6fdd" text-anchor="end" pointer-events="visible" font-family="Open Sans" transform="matrix(1,0,0,1,515,0)"><tspan dy="0" style="fill-opacity: 0; stroke-opacity: 0;" >-</tspan></text><image  id="v-769" pointer-events="visible" xlink:href="https://static.structurizr.com/themes/kubernetes-v0.3/ns-256.png" width="48" height="48" opacity="1" x="15" y="1110"></image></g></g><!--z-index:12--><g   id="j_86"  transform="translate(1190,185)" style=""><g  id="v-782" style="opacity: 1;"><rect  id="v-783" width="530" height="522" rx="10" ry="10" fill="#ffffff" stroke="#3d6fdd" stroke-width="1" pointer-events="none" style="stroke: rgb(61, 111, 221);"></rect><text  id="v-784" font-size="24px" xml:space="preserve" y="483" font-weight="normal" text-anchor="start" pointer-events="visible" font-family="Open Sans" fill="#3d6fdd" transform="matrix(1,0,0,1,73,0)" style="fill: rgb(61, 111, 221);"><tspan dy="0" >swh-cassandra</tspan></text><text  id="v-785" font-size="17px" xml:space="preserve" y="507" font-weight="normal" text-anchor="start" pointer-events="visible" font-family="Open Sans" fill="#3d6fdd" transform="matrix(1,0,0,1,73,0)" style="fill: rgb(61, 111, 221);"><tspan dy="0" >[Deployment Node]</tspan></text><text  id="v-786" font-size="40px" xml:space="preserve" display="none" y="507" font-weight="normal" fill="#3d6fdd" text-anchor="end" pointer-events="visible" font-family="Open Sans" transform="matrix(1,0,0,1,515,0)"><tspan dy="0" style="fill-opacity: 0; stroke-opacity: 0;" >-</tspan></text><image  id="v-787" pointer-events="visible" xlink:href="https://static.structurizr.com/themes/kubernetes-v0.3/ns-256.png" width="48" height="48" opacity="1" x="15" y="464"></image></g></g><!--z-index:13--><g   id="j_84"  transform="translate(239,205)" style=""><g  id="v-770" style="opacity: 1;"><rect  id="v-771" width="490" height="411" rx="10" ry="10" fill="#ffffff" stroke="#3d6fdd" stroke-width="1" pointer-events="none" style="stroke: rgb(61, 111, 221);"></rect><text  id="v-772" font-size="24px" xml:space="preserve" y="372" font-weight="normal" text-anchor="start" pointer-events="visible" font-family="Open Sans" fill="#3d6fdd" transform="matrix(1,0,0,1,73,0)" style="fill: rgb(61, 111, 221);"><tspan dy="0" >webapp_ingress</tspan></text><text  id="v-773" font-size="17px" xml:space="preserve" y="396" font-weight="normal" text-anchor="start" pointer-events="visible" font-family="Open Sans" fill="#3d6fdd" transform="matrix(1,0,0,1,73,0)" style="fill: rgb(61, 111, 221);"><tspan dy="0" >[Deployment Node]</tspan></text><text  id="v-774" font-size="40px" xml:space="preserve" display="none" y="396" font-weight="normal" fill="#3d6fdd" text-anchor="end" pointer-events="visible" font-family="Open Sans" transform="matrix(1,0,0,1,475,0)"><tspan dy="0" style="fill-opacity: 0; stroke-opacity: 0;" >-</tspan></text><image  id="v-775" pointer-events="visible" xlink:href="https://static.structurizr.com/themes/kubernetes-v0.3/ing-256.png" width="48" height="48" opacity="1" x="15" y="353"></image></g></g><!--z-index:14--><g   id="j_85"  transform="translate(239,851)" style=""><g  id="v-776" style="opacity: 1;"><rect  id="v-777" width="490" height="411" rx="10" ry="10" fill="#ffffff" stroke="#3d6fdd" stroke-width="1" pointer-events="none" style="stroke: rgb(61, 111, 221);"></rect><text  id="v-778" font-size="24px" xml:space="preserve" y="372" font-weight="normal" text-anchor="start" pointer-events="visible" font-family="Open Sans" fill="#3d6fdd" transform="matrix(1,0,0,1,73,0)" style="fill: rgb(61, 111, 221);"><tspan dy="0" >provenance-ingress</tspan></text><text  id="v-779" font-size="17px" xml:space="preserve" y="396" font-weight="normal" text-anchor="start" pointer-events="visible" font-family="Open Sans" fill="#3d6fdd" transform="matrix(1,0,0,1,73,0)" style="fill: rgb(61, 111, 221);"><tspan dy="0" >[Deployment Node]</tspan></text><text  id="v-780" font-size="40px" xml:space="preserve" display="none" y="396" font-weight="normal" fill="#3d6fdd" text-anchor="end" pointer-events="visible" font-family="Open Sans" transform="matrix(1,0,0,1,475,0)"><tspan dy="0" style="fill-opacity: 0; stroke-opacity: 0;" >-</tspan></text><image  id="v-781" pointer-events="visible" xlink:href="https://static.structurizr.com/themes/kubernetes-v0.3/ing-256.png" width="48" height="48" opacity="1" x="15" y="353"></image></g></g><!--z-index:15--><g   id="j_87"  transform="translate(1210,205)" style=""><g  id="v-788" style="opacity: 1;"><rect  id="v-789" width="490" height="411" rx="10" ry="10" fill="#ffffff" stroke="#3d6fdd" stroke-width="1" pointer-events="none" style="stroke: rgb(61, 111, 221);"></rect><text  id="v-790" font-size="24px" xml:space="preserve" y="372" font-weight="normal" text-anchor="start" pointer-events="visible" font-family="Open Sans" fill="#3d6fdd" transform="matrix(1,0,0,1,73,0)" style="fill: rgb(61, 111, 221);"><tspan dy="0" >webapp_ingress</tspan></text><text  id="v-791" font-size="17px" xml:space="preserve" y="396" font-weight="normal" text-anchor="start" pointer-events="visible" font-family="Open Sans" fill="#3d6fdd" transform="matrix(1,0,0,1,73,0)" style="fill: rgb(61, 111, 221);"><tspan dy="0" >[Deployment Node]</tspan></text><text  id="v-792" font-size="40px" xml:space="preserve" display="none" y="396" font-weight="normal" fill="#3d6fdd" text-anchor="end" pointer-events="visible" font-family="Open Sans" transform="matrix(1,0,0,1,475,0)"><tspan dy="0" style="fill-opacity: 0; stroke-opacity: 0;" >-</tspan></text><image  id="v-793" pointer-events="visible" xlink:href="https://static.structurizr.com/themes/kubernetes-v0.3/ing-256.png" width="48" height="48" opacity="1" x="15" y="353"></image></g></g><!--z-index:16--><g   id="j_78"  transform="translate(259,225)" style=""><g  id="v-728" style="opacity: 1;"><rect  id="v-729" rx="1" ry="1" stroke="#c7c7c7" stroke-width="2" pointer-events="visiblePainted" fill="#dddddd" width="450" height="300" style="fill: rgb(221, 221, 221); stroke: rgb(199, 199, 199);"></rect><text  id="v-730" font-size="34" xml:space="preserve" y="0.8em" font-weight="bold" text-anchor="middle" pointer-events="visible" font-family="Open Sans" fill="#000000" transform="matrix(1,0,0,1,225,92.3)" style="fill: rgb(0, 0, 0);"><tspan dy="0" >Webapp</tspan></text><text  id="v-731" font-size="17" xml:space="preserve" y="0.8em" text-anchor="middle" font-family="Open Sans" fill="#000000" transform="matrix(1,0,0,1,225,133.1)" style="fill: rgb(0, 0, 0);"><tspan dy="0" >from SoftwareHeritage</tspan><tspan dy="1.2em" x="0" >[Container]</tspan></text><text  id="v-732" font-size="24" xml:space="preserve" y="0.8em" text-anchor="middle" font-family="Open Sans" fill="#000000" transform="matrix(1,0,0,1,225,183.9)" style="fill: rgb(0, 0, 0);"><tspan dy="0" >archive webapp</tspan></text><g  id="v-733" color="#000000" transform="matrix(1,0,0,1,222.5,268)" display="none" style="fill: rgb(0, 0, 0);"><g ></g><g ></g><g ></g><g ></g></g><image  id="v-734"></image></g></g><!--z-index:17--><g   id="j_79"  transform="translate(259,871)" style=""><g  id="v-738" style="opacity: 1;"><rect  id="v-739" rx="1" ry="1" stroke="#c7c7c7" stroke-width="2" pointer-events="visiblePainted" fill="#dddddd" width="450" height="300" style="fill: rgb(221, 221, 221); stroke: rgb(199, 199, 199);"></rect><text  id="v-740" font-size="34" xml:space="preserve" y="0.8em" font-weight="bold" text-anchor="middle" pointer-events="visible" font-family="Open Sans" fill="#000000" transform="matrix(1,0,0,1,225,111.7)" style="fill: rgb(0, 0, 0);"><tspan dy="0" >swh-provenance-grpc</tspan></text><text  id="v-741" font-size="17" xml:space="preserve" y="0.8em" text-anchor="middle" font-family="Open Sans" fill="#000000" transform="matrix(1,0,0,1,225,152.5)" style="fill: rgb(0, 0, 0);"><tspan dy="0" >from SoftwareHeritage</tspan><tspan dy="1.2em" x="0" >[Container: rust]</tspan></text><text  id="v-742" font-size="24" xml:space="preserve" display="none" y="0.8em" text-anchor="middle" font-family="Open Sans" fill="#000000" transform="matrix(1,0,0,1,225,193.3)" style="fill: rgb(0, 0, 0);"><tspan dy="0" style="fill-opacity: 0; stroke-opacity: 0;" >-</tspan></text><g  id="v-743" color="#000000" transform="matrix(1,0,0,1,222.5,268)" display="none" style="fill: rgb(0, 0, 0);"><g ></g><g ></g><g ></g><g ></g></g><image  id="v-744"></image></g></g><!--z-index:18--><g   id="j_80"  transform="translate(1230,225)" style=""><g  id="v-745" style="opacity: 1;"><rect  id="v-746" rx="1" ry="1" stroke="#c7c7c7" stroke-width="2" pointer-events="visiblePainted" fill="#dddddd" width="450" height="300" style="fill: rgb(221, 221, 221); stroke: rgb(199, 199, 199);"></rect><text  id="v-747" font-size="34" xml:space="preserve" y="0.8em" font-weight="bold" text-anchor="middle" pointer-events="visible" font-family="Open Sans" fill="#000000" transform="matrix(1,0,0,1,225,92.3)" style="fill: rgb(0, 0, 0);"><tspan dy="0" >Webapp</tspan></text><text  id="v-748" font-size="17" xml:space="preserve" y="0.8em" text-anchor="middle" font-family="Open Sans" fill="#000000" transform="matrix(1,0,0,1,225,133.1)" style="fill: rgb(0, 0, 0);"><tspan dy="0" >from SoftwareHeritage</tspan><tspan dy="1.2em" x="0" >[Container]</tspan></text><text  id="v-749" font-size="24" xml:space="preserve" y="0.8em" text-anchor="middle" font-family="Open Sans" fill="#000000" transform="matrix(1,0,0,1,225,183.9)" style="fill: rgb(0, 0, 0);"><tspan dy="0" >archive webapp</tspan></text><g  id="v-750" color="#000000" transform="matrix(1,0,0,1,222.5,268)" display="none" style="fill: rgb(0, 0, 0);"><g ></g><g ></g><g ></g><g ></g></g><image  id="v-751"></image></g></g><!--z-index:19--><g   id="j_81"  transform="translate(2110,851)" style=""><g  id="v-752" style="opacity: 1;"><rect  id="v-753" width="490" height="411" rx="10" ry="10" fill="#ffffff" stroke="#888888" stroke-width="1" pointer-events="none" style="stroke: rgb(136, 136, 136);"></rect><text  id="v-754" font-size="24px" xml:space="preserve" y="372" font-weight="normal" text-anchor="start" pointer-events="visible" font-family="Open Sans" fill="#000000" transform="matrix(1,0,0,1,15,0)" style="fill: rgb(0, 0, 0);"><tspan dy="0" >kelvingrove</tspan></text><text  id="v-755" font-size="17px" xml:space="preserve" y="396" font-weight="normal" text-anchor="start" pointer-events="visible" font-family="Open Sans" fill="#000000" transform="matrix(1,0,0,1,15,0)" style="fill: rgb(0, 0, 0);"><tspan dy="0" >[Deployment Node]</tspan></text><text  id="v-756" font-size="40px" xml:space="preserve" display="none" y="396" font-weight="normal" fill="#000000" text-anchor="end" pointer-events="visible" font-family="Open Sans" transform="matrix(1,0,0,1,475,0)"><tspan dy="0" style="fill-opacity: 0; stroke-opacity: 0;" >-</tspan></text><image  id="v-757" pointer-events="visible"></image></g></g><!--z-index:20--><g   id="j_77"  transform="translate(2130,871)" style=""><g  id="v-721" style="opacity: 1;"><rect  id="v-722" rx="1" ry="1" stroke="#c7c7c7" stroke-width="2" pointer-events="visiblePainted" fill="#dddddd" width="450" height="300" style="fill: rgb(221, 221, 221); stroke: rgb(199, 199, 199);"></rect><text  id="v-723" font-size="34" xml:space="preserve" y="0.8em" font-weight="bold" text-anchor="middle" pointer-events="visible" font-family="Open Sans" fill="#000000" transform="matrix(1,0,0,1,225,111.7)" style="fill: rgb(0, 0, 0);"><tspan dy="0" >keycloak</tspan></text><text  id="v-724" font-size="17" xml:space="preserve" y="0.8em" text-anchor="middle" font-family="Open Sans" fill="#000000" transform="matrix(1,0,0,1,225,152.5)" style="fill: rgb(0, 0, 0);"><tspan dy="0" >from SoftwareHeritage</tspan><tspan dy="1.2em" x="0" >[Container: provenance]</tspan></text><text  id="v-725" font-size="24" xml:space="preserve" display="none" y="0.8em" text-anchor="middle" font-family="Open Sans" fill="#000000" transform="matrix(1,0,0,1,225,193.3)" style="fill: rgb(0, 0, 0);"><tspan dy="0" style="fill-opacity: 0; stroke-opacity: 0;" >-</tspan></text><g  id="v-726" color="#000000" transform="matrix(1,0,0,1,222.5,268)" display="none" style="fill: rgb(0, 0, 0);"><g ></g><g ></g><g ></g><g ></g></g><image  id="v-727"></image></g></g><!--z-index:21--><g   id="j_76"  transform="translate(20,1642.6)"><g id="v-719"><text  id="v-720" font-size="22px" xml:space="preserve" y="0.8em" font-weight="normal" text-anchor="start" fill="#aaaaaa" pointer-events="none" display="block" font-family="Open Sans"><tspan dy="0"  display="block">Monday, March 31, 2025 at 4:48 PM Central European Summer Time</tspan></text></g></g><!--z-index:22--><g   id="j_75"  transform="translate(20,1599.3999999999999)"><g id="v-717"><text  id="v-718" font-size="36px" xml:space="preserve" y="0.8em" font-weight="normal" text-anchor="start" fill="#000000" pointer-events="none" display="block" font-family="Open Sans"><tspan dy="0"  display="block">swh-provenance Production deployment</tspan></text></g></g><!--z-index:23--><g   id="j_88" ><path  stroke="#707070" d="M 709 517 L 1043 728 C 1048.3333333333333 731.3333333333333 1054.3333333333333 733.6666666666666 1061 735 L 2130 971" id="v-807" stroke-width="2" fill="none" style="opacity: 1;"></path><path  fill="black" stroke="black" d="M 0 0 0 0" transform="matrix(0.8455558600710205,0.5338869613500191,-0.5338869613500191,0.8455558600710205,709,517.0599975585938)"></path><path  fill="#707070" stroke="#707070" d="M 20 0 L 0 10 L 20 20 z" id="v-809" transform="matrix(-0.9764675283240875,-0.2156644758152059,0.2156644758152059,-0.9764675283240875,2127.843382087589,981.0747013890492)" style="opacity: 1;"></path><path  d="M 709 517 L 1043 728 C 1048.3333333333333 731.3333333333333 1054.3333333333333 733.6666666666666 1061 735 L 2130 971" id="v-808" fill="none" style="cursor: auto; pointer-events: visiblepainted;"></path><g ><g id="v-801"  label-idx="0" cursor="move" transform="matrix(1,0,0,1,1761.5654296875,889.6618041992188)" style="cursor: default; opacity: 1;"><rect joint-selector="rect" id="v-804" fill="#ffffff" rx="3" ry="3" pointer-events="none" width="155.45004272460938" height="90.86188125610352" transform="matrix(1,0,0,1,-77.7,-45.5)"></rect><text joint-selector="text" id="v-803" font-size="24px" xml:space="preserve" y="0.8em" fill="#707070" text-anchor="middle" pointer-events="none" font-family="Open Sans" font-weight="normal" transform="matrix(1,0,0,1,0,-38.4)"><tspan dy="0" >gets</tspan><tspan dy="1.2em" x="0" >authenticated</tspan><tspan dy="1.2em" x="0" >user roles</tspan></text></g><g id="v-802"  label-idx="1" cursor="move" transform="matrix(1,0,0,1,1751.5654296875,944.8617553710938)" style="cursor: default; opacity: 1;"><rect joint-selector="rect" id="v-806" fill="#ffffff" rx="3" ry="3"  width="0" height="0" transform="matrix(1,0,0,1,0,0)" display="none"></rect><text joint-selector="text" id="v-805" fill="#000000" font-size="14" text-anchor="middle" pointer-events="none"></text></g></g><g  display="none" style="display: none;"><g  transform="translate(1051, 733)" id="v-874"><circle  idx="0" r="10"></circle><path  idx="0" d="M16,5.333c-7.732,0-14,4.701-14,10.5c0,1.982,0.741,3.833,2.016,5.414L2,25.667l5.613-1.441c2.339,1.317,5.237,2.107,8.387,2.107c7.732,0,14-4.701,14-10.5C30,10.034,23.732,5.333,16,5.333z" transform="translate(5, -33)"></path><path  idx="0" transform="scale(.8) translate(9.5, -37)" d="M24.778,21.419 19.276,15.917 24.777,10.415 21.949,7.585 16.447,13.087 10.945,7.585 8.117,10.415 13.618,15.917 8.116,21.419 10.946,24.248 16.447,18.746 21.948,24.248z"><title>Remove vertex.</title></path></g></g><g  id="v-811" display="none"><g  id="v-799"><path  end="source" d="M 26 0 L 0 13 L 26 26 z"></path></g><g  id="v-800"><path  end="target" d="M 26 0 L 0 13 L 26 26 z"></path></g></g><g  id="v-810" display="none"><g  id="v-797" transform="translate(742.8171499910065, 538.363528886534) "><g  event="remove"><circle r="11"></circle><path transform="scale(.8) translate(-16, -16)" d="M24.778,21.419 19.276,15.917 24.777,10.415 21.949,7.585 16.447,13.087 10.945,7.585 8.117,10.415 13.618,15.917 8.116,21.419 10.946,24.248 16.447,18.746 21.948,24.248z"></path><title>Remove link.</title></g><g  event="link:options"><circle r="11" transform="translate(25)"></circle><path fill="white" transform="scale(.55) translate(29, -16)" d="M31.229,17.736c0.064-0.571,0.104-1.148,0.104-1.736s-0.04-1.166-0.104-1.737l-4.377-1.557c-0.218-0.716-0.504-1.401-0.851-2.05l1.993-4.192c-0.725-0.91-1.549-1.734-2.458-2.459l-4.193,1.994c-0.647-0.347-1.334-0.632-2.049-0.849l-1.558-4.378C17.165,0.708,16.588,0.667,16,0.667s-1.166,0.041-1.737,0.105L12.707,5.15c-0.716,0.217-1.401,0.502-2.05,0.849L6.464,4.005C5.554,4.73,4.73,5.554,4.005,6.464l1.994,4.192c-0.347,0.648-0.632,1.334-0.849,2.05l-4.378,1.557C0.708,14.834,0.667,15.412,0.667,16s0.041,1.165,0.105,1.736l4.378,1.558c0.217,0.715,0.502,1.401,0.849,2.049l-1.994,4.193c0.725,0.909,1.549,1.733,2.459,2.458l4.192-1.993c0.648,0.347,1.334,0.633,2.05,0.851l1.557,4.377c0.571,0.064,1.148,0.104,1.737,0.104c0.588,0,1.165-0.04,1.736-0.104l1.558-4.377c0.715-0.218,1.399-0.504,2.049-0.851l4.193,1.993c0.909-0.725,1.733-1.549,2.458-2.458l-1.993-4.193c0.347-0.647,0.633-1.334,0.851-2.049L31.229,17.736zM16,20.871c-2.69,0-4.872-2.182-4.872-4.871c0-2.69,2.182-4.872,4.872-4.872c2.689,0,4.871,2.182,4.871,4.872C20.871,18.689,18.689,20.871,16,20.871z"></path><title>Link options.</title></g></g></g></g><!--z-index:24--><g   id="j_89" ><path  stroke="#707070" d="M 484 525 L 484 871" id="v-827" stroke-width="2" fill="none" style="opacity: 1;"></path><path  fill="black" stroke="black" d="M 0 0 0 0" transform="matrix(6.123233995736766e-17,1,-1,6.123233995736766e-17,484,525)"></path><path  fill="#707070" stroke="#707070" d="M 20 0 L 0 10 L 20 20 z" id="v-829" transform="matrix(-1.8369701987210297e-16,-1,1,-1.8369701987210297e-16,474,871)" style="opacity: 1;"></path><path  d="M 484 525 L 484 871" id="v-828" fill="none" style="cursor: auto; pointer-events: visiblepainted;"></path><g ><g id="v-818"  label-idx="0" cursor="move" transform="matrix(1,0,0,1,484,784.5)" style="cursor: default; opacity: 1;"><rect joint-selector="rect" id="v-822" fill="#ffffff" rx="3" ry="3" pointer-events="none" width="171.0415496826172" height="33.261878967285156" transform="matrix(1,0,0,1,-85.5,-16.7)"></rect><text joint-selector="text" id="v-821" font-size="24px" xml:space="preserve" y="0.8em" fill="#707070" text-anchor="middle" pointer-events="none" font-family="Open Sans" font-weight="normal" transform="matrix(1,0,0,1,0,-9.6)"><tspan dy="0" >Sends requests</tspan></text></g><g id="v-819"  label-idx="1" cursor="move" transform="matrix(1,0,0,1,484,810.9000244140625)" style="cursor: default; opacity: 1;"><rect joint-selector="rect" id="v-824" fill="#ffffff" rx="3" ry="3" pointer-events="none" width="45.817142486572266" height="22.758127212524414" transform="matrix(1,0,0,1,-22.9,-11.4)"></rect><text joint-selector="text" id="v-823" font-size="17px" xml:space="preserve" y="0.8em" fill="#707070" text-anchor="middle" pointer-events="none" font-family="Open Sans" font-weight="normal" transform="matrix(1,0,0,1,0,-7.5)"><tspan dy="0" >[grpc]</tspan></text></g><g id="v-820"  label-idx="2" cursor="move" transform="matrix(1,0,0,1,474,819.2999877929688)" style="cursor: default; opacity: 1;"><rect joint-selector="rect" id="v-826" fill="#ffffff" rx="3" ry="3"  width="0" height="0" transform="matrix(1,0,0,1,0,0)" display="none"></rect><text joint-selector="text" id="v-825" fill="#000000" font-size="14" text-anchor="middle" pointer-events="none"></text></g></g><g  display="none" style="display: none;"></g><g  id="v-831" display="none"><g  id="v-816"><path  end="source" d="M 26 0 L 0 13 L 26 26 z"></path></g><g  id="v-817"><path  end="target" d="M 26 0 L 0 13 L 26 26 z"></path></g></g><g  id="v-830" display="none"><g  id="v-815" transform="translate(484.00000000000006, 565) "><g  event="remove"><circle r="11"></circle><path transform="scale(.8) translate(-16, -16)" d="M24.778,21.419 19.276,15.917 24.777,10.415 21.949,7.585 16.447,13.087 10.945,7.585 8.117,10.415 13.618,15.917 8.116,21.419 10.946,24.248 16.447,18.746 21.948,24.248z"></path><title>Remove link.</title></g><g  event="link:options"><circle r="11" transform="translate(25)"></circle><path fill="white" transform="scale(.55) translate(29, -16)" d="M31.229,17.736c0.064-0.571,0.104-1.148,0.104-1.736s-0.04-1.166-0.104-1.737l-4.377-1.557c-0.218-0.716-0.504-1.401-0.851-2.05l1.993-4.192c-0.725-0.91-1.549-1.734-2.458-2.459l-4.193,1.994c-0.647-0.347-1.334-0.632-2.049-0.849l-1.558-4.378C17.165,0.708,16.588,0.667,16,0.667s-1.166,0.041-1.737,0.105L12.707,5.15c-0.716,0.217-1.401,0.502-2.05,0.849L6.464,4.005C5.554,4.73,4.73,5.554,4.005,6.464l1.994,4.192c-0.347,0.648-0.632,1.334-0.849,2.05l-4.378,1.557C0.708,14.834,0.667,15.412,0.667,16s0.041,1.165,0.105,1.736l4.378,1.558c0.217,0.715,0.502,1.401,0.849,2.049l-1.994,4.193c0.725,0.909,1.549,1.733,2.459,2.458l4.192-1.993c0.648,0.347,1.334,0.633,2.05,0.851l1.557,4.377c0.571,0.064,1.148,0.104,1.737,0.104c0.588,0,1.165-0.04,1.736-0.104l1.558-4.377c0.715-0.218,1.399-0.504,2.049-0.851l4.193,1.993c0.909-0.725,1.733-1.549,2.458-2.458l-1.993-4.193c0.347-0.647,0.633-1.334,0.851-2.049L31.229,17.736zM16,20.871c-2.69,0-4.872-2.182-4.872-4.871c0-2.69,2.182-4.872,4.872-4.872c2.689,0,4.871,2.182,4.871,4.872C20.871,18.689,18.689,20.871,16,20.871z"></path><title>Link options.</title></g></g></g></g><!--z-index:25--><g   id="j_90" ><path  stroke="#707070" d="M 1230 525 L 709 871" id="v-847" stroke-width="2" fill="none" style="opacity: 1;"></path><path  fill="black" stroke="black" d="M 0 0 0 0" transform="matrix(-0.8325760101003433,0.5539108117787493,-0.5539108117787493,-0.8325760101003433,1230,524.6900024414062)"></path><path  fill="#707070" stroke="#707070" d="M 20 0 L 0 10 L 20 20 z" id="v-849" transform="matrix(0.8325761576156859,-0.5539105900503262,0.5539105900503262,0.8325761576156859,703.4608771522461,862.9842183477839)" style="opacity: 1;"></path><path  d="M 1230 525 L 709 871" id="v-848" fill="none" style="cursor: auto; pointer-events: visiblepainted;"></path><g ><g id="v-838"  label-idx="0" cursor="move" transform="matrix(1,0,0,1,839.25,784.5)" style="cursor: default; opacity: 1;"><rect joint-selector="rect" id="v-842" fill="#ffffff" rx="3" ry="3" pointer-events="none" width="171.0415496826172" height="33.261878967285156" transform="matrix(1,0,0,1,-85.5,-16.7)"></rect><text joint-selector="text" id="v-841" font-size="24px" xml:space="preserve" y="0.8em" fill="#707070" text-anchor="middle" pointer-events="none" font-family="Open Sans" font-weight="normal" transform="matrix(1,0,0,1,0,-9.6)"><tspan dy="0" >Sends requests</tspan></text></g><g id="v-839"  label-idx="1" cursor="move" transform="matrix(1,0,0,1,839.25,810.9000244140625)" style="cursor: default; opacity: 1;"><rect joint-selector="rect" id="v-844" fill="#ffffff" rx="3" ry="3" pointer-events="none" width="45.817142486572266" height="22.758127212524414" transform="matrix(1,0,0,1,-22.9,-11.4)"></rect><text joint-selector="text" id="v-843" font-size="17px" xml:space="preserve" y="0.8em" fill="#707070" text-anchor="middle" pointer-events="none" font-family="Open Sans" font-weight="normal" transform="matrix(1,0,0,1,0,-7.5)"><tspan dy="0" >[grpc]</tspan></text></g><g id="v-840"  label-idx="2" cursor="move" transform="matrix(1,0,0,1,829.25,819.2999877929688)" style="cursor: default; opacity: 1;"><rect joint-selector="rect" id="v-846" fill="#ffffff" rx="3" ry="3"  width="0" height="0" transform="matrix(1,0,0,1,0,0)" display="none"></rect><text joint-selector="text" id="v-845" fill="#000000" font-size="14" text-anchor="middle" pointer-events="none"></text></g></g><g  display="none" style="display: none;"></g><g  id="v-851" display="none"><g  id="v-836"><path  end="source" d="M 26 0 L 0 13 L 26 26 z"></path></g><g  id="v-837"><path  end="target" d="M 26 0 L 0 13 L 26 26 z"></path></g></g><g  id="v-850" display="none"><g  id="v-835" transform="translate(1196.6786827637854, 547.1289362067758) "><g  event="remove"><circle r="11"></circle><path transform="scale(.8) translate(-16, -16)" d="M24.778,21.419 19.276,15.917 24.777,10.415 21.949,7.585 16.447,13.087 10.945,7.585 8.117,10.415 13.618,15.917 8.116,21.419 10.946,24.248 16.447,18.746 21.948,24.248z"></path><title>Remove link.</title></g><g  event="link:options"><circle r="11" transform="translate(25)"></circle><path fill="white" transform="scale(.55) translate(29, -16)" d="M31.229,17.736c0.064-0.571,0.104-1.148,0.104-1.736s-0.04-1.166-0.104-1.737l-4.377-1.557c-0.218-0.716-0.504-1.401-0.851-2.05l1.993-4.192c-0.725-0.91-1.549-1.734-2.458-2.459l-4.193,1.994c-0.647-0.347-1.334-0.632-2.049-0.849l-1.558-4.378C17.165,0.708,16.588,0.667,16,0.667s-1.166,0.041-1.737,0.105L12.707,5.15c-0.716,0.217-1.401,0.502-2.05,0.849L6.464,4.005C5.554,4.73,4.73,5.554,4.005,6.464l1.994,4.192c-0.347,0.648-0.632,1.334-0.849,2.05l-4.378,1.557C0.708,14.834,0.667,15.412,0.667,16s0.041,1.165,0.105,1.736l4.378,1.558c0.217,0.715,0.502,1.401,0.849,2.049l-1.994,4.193c0.725,0.909,1.549,1.733,2.459,2.458l4.192-1.993c0.648,0.347,1.334,0.633,2.05,0.851l1.557,4.377c0.571,0.064,1.148,0.104,1.737,0.104c0.588,0,1.165-0.04,1.736-0.104l1.558-4.377c0.715-0.218,1.399-0.504,2.049-0.851l4.193,1.993c0.909-0.725,1.733-1.549,2.458-2.458l-1.993-4.193c0.347-0.647,0.633-1.334,0.851-2.049L31.229,17.736zM16,20.871c-2.69,0-4.872-2.182-4.872-4.871c0-2.69,2.182-4.872,4.872-4.872c2.689,0,4.871,2.182,4.871,4.872C20.871,18.689,18.689,20.871,16,20.871z"></path><title>Link options.</title></g></g></g></g><!--z-index:26--><g   id="j_91" ><path  stroke="#707070" d="M 1664 525 L 2146 871" id="v-864" stroke-width="2" fill="none" style="opacity: 1;"></path><path  fill="black" stroke="black" d="M 0 0 0 0" transform="matrix(0.8123876168408161,0.5831177925631316,-0.5831177925631316,0.8123876168408161,1663.97998046875,525)"></path><path  fill="#707070" stroke="#707070" d="M 20 0 L 0 10 L 20 20 z" id="v-866" transform="matrix(-0.812387578017399,-0.5831178466511074,0.5831178466511074,-0.812387578017399,2140.1889375480378,879.1238774888726)" style="opacity: 1;"></path><path  d="M 1664 525 L 2146 871" id="v-865" fill="none" style="cursor: auto; pointer-events: visiblepainted;"></path><g ><g id="v-858"  label-idx="0" cursor="move" transform="matrix(1,0,0,1,2025.5,784.5)" style="cursor: default; opacity: 1;"><rect joint-selector="rect" id="v-861" fill="#ffffff" rx="3" ry="3" pointer-events="none" width="155.45004272460938" height="90.86188125610352" transform="matrix(1,0,0,1,-77.7,-45.5)"></rect><text joint-selector="text" id="v-860" font-size="24px" xml:space="preserve" y="0.8em" fill="#707070" text-anchor="middle" pointer-events="none" font-family="Open Sans" font-weight="normal" transform="matrix(1,0,0,1,0,-38.4)"><tspan dy="0" >gets</tspan><tspan dy="1.2em" x="0" >authenticated</tspan><tspan dy="1.2em" x="0" >user roles</tspan></text></g><g id="v-859"  label-idx="1" cursor="move" transform="matrix(1,0,0,1,2015.5,839.7000122070312)" style="cursor: default; opacity: 1;"><rect joint-selector="rect" id="v-863" fill="#ffffff" rx="3" ry="3"  width="0" height="0" transform="matrix(1,0,0,1,0,0)" display="none"></rect><text joint-selector="text" id="v-862" fill="#000000" font-size="14" text-anchor="middle" pointer-events="none"></text></g></g><g  display="none" style="display: none;"></g><g  id="v-868" display="none"><g  id="v-856"><path  end="source" d="M 26 0 L 0 13 L 26 26 z"></path></g><g  id="v-857"><path  end="target" d="M 26 0 L 0 13 L 26 26 z"></path></g></g><g  id="v-867" display="none"><g  id="v-855" transform="translate(1696.4945871398163, 548.3259899385403) "><g  event="remove"><circle r="11"></circle><path transform="scale(.8) translate(-16, -16)" d="M24.778,21.419 19.276,15.917 24.777,10.415 21.949,7.585 16.447,13.087 10.945,7.585 8.117,10.415 13.618,15.917 8.116,21.419 10.946,24.248 16.447,18.746 21.948,24.248z"></path><title>Remove link.</title></g><g  event="link:options"><circle r="11" transform="translate(25)"></circle><path fill="white" transform="scale(.55) translate(29, -16)" d="M31.229,17.736c0.064-0.571,0.104-1.148,0.104-1.736s-0.04-1.166-0.104-1.737l-4.377-1.557c-0.218-0.716-0.504-1.401-0.851-2.05l1.993-4.192c-0.725-0.91-1.549-1.734-2.458-2.459l-4.193,1.994c-0.647-0.347-1.334-0.632-2.049-0.849l-1.558-4.378C17.165,0.708,16.588,0.667,16,0.667s-1.166,0.041-1.737,0.105L12.707,5.15c-0.716,0.217-1.401,0.502-2.05,0.849L6.464,4.005C5.554,4.73,4.73,5.554,4.005,6.464l1.994,4.192c-0.347,0.648-0.632,1.334-0.849,2.05l-4.378,1.557C0.708,14.834,0.667,15.412,0.667,16s0.041,1.165,0.105,1.736l4.378,1.558c0.217,0.715,0.502,1.401,0.849,2.049l-1.994,4.193c0.725,0.909,1.549,1.733,2.459,2.458l4.192-1.993c0.648,0.347,1.334,0.633,2.05,0.851l1.557,4.377c0.571,0.064,1.148,0.104,1.737,0.104c0.588,0,1.165-0.04,1.736-0.104l1.558-4.377c0.715-0.218,1.399-0.504,2.049-0.851l4.193,1.993c0.909-0.725,1.733-1.549,2.458-2.458l-1.993-4.193c0.347-0.647,0.633-1.334,0.851-2.049L31.229,17.736zM16,20.871c-2.69,0-4.872-2.182-4.872-4.871c0-2.69,2.182-4.872,4.872-4.872c2.689,0,4.871,2.182,4.871,4.872C20.871,18.689,18.689,20.871,16,20.871z"></path><title>Link options.</title></g></g></g></g><!--z-index:27--><!--z-index:28--><!--z-index:29--><!--z-index:30--><!--z-index:31--><!--z-index:32--><!--z-index:33--></g><g ></g><g ></g><g ></g></g></svg>